<mxfile host="app.diagrams.net" modified="2022-05-04T05:34:51.840Z" agent="5.0 (Windows NT 10.0; Win64; x64) AppleWebKit/537.36 (KHTML, like Gecko) Chrome/101.0.4951.54 Safari/537.36" etag="hzq9ka9zeeI-18ywRMB8" version="17.5.0" type="github">
  <diagram id="nwSjNLSLKTwTbHizwymB" name="Page-1">
    <mxGraphModel dx="2249" dy="1963" grid="1" gridSize="10" guides="1" tooltips="1" connect="1" arrows="1" fold="1" page="1" pageScale="1" pageWidth="827" pageHeight="1169" math="0" shadow="0">
      <root>
        <mxCell id="0" />
        <mxCell id="1" parent="0" />
        <mxCell id="OFqaLSWiUaQzR4q7q7dH-5" style="edgeStyle=orthogonalEdgeStyle;rounded=0;orthogonalLoop=1;jettySize=auto;html=1;" edge="1" parent="1" source="OFqaLSWiUaQzR4q7q7dH-1" target="OFqaLSWiUaQzR4q7q7dH-4">
          <mxGeometry relative="1" as="geometry" />
        </mxCell>
        <mxCell id="OFqaLSWiUaQzR4q7q7dH-1" value="GIS" style="rounded=1;whiteSpace=wrap;html=1;" vertex="1" parent="1">
          <mxGeometry x="-40" y="320" width="120" height="60" as="geometry" />
        </mxCell>
        <mxCell id="OFqaLSWiUaQzR4q7q7dH-2" value="BIM" style="rounded=1;whiteSpace=wrap;html=1;" vertex="1" parent="1">
          <mxGeometry x="-40" y="440" width="120" height="60" as="geometry" />
        </mxCell>
        <mxCell id="OFqaLSWiUaQzR4q7q7dH-3" value="IOT" style="rounded=1;whiteSpace=wrap;html=1;" vertex="1" parent="1">
          <mxGeometry x="-40" y="720" width="120" height="60" as="geometry" />
        </mxCell>
        <mxCell id="OFqaLSWiUaQzR4q7q7dH-4" value="CEISUM For UE5" style="rounded=1;whiteSpace=wrap;html=1;" vertex="1" parent="1">
          <mxGeometry x="180" y="320" width="120" height="60" as="geometry" />
        </mxCell>
        <mxCell id="OFqaLSWiUaQzR4q7q7dH-6" value="Widget" style="rounded=1;whiteSpace=wrap;html=1;" vertex="1" parent="1">
          <mxGeometry x="600" y="160" width="120" height="60" as="geometry" />
        </mxCell>
        <mxCell id="OFqaLSWiUaQzR4q7q7dH-9" style="rounded=0;orthogonalLoop=1;jettySize=auto;html=1;" edge="1" parent="1" source="OFqaLSWiUaQzR4q7q7dH-7" target="OFqaLSWiUaQzR4q7q7dH-8">
          <mxGeometry relative="1" as="geometry" />
        </mxCell>
        <mxCell id="OFqaLSWiUaQzR4q7q7dH-12" style="edgeStyle=none;rounded=0;orthogonalLoop=1;jettySize=auto;html=1;entryX=0.5;entryY=0;entryDx=0;entryDy=0;" edge="1" parent="1" source="OFqaLSWiUaQzR4q7q7dH-7" target="OFqaLSWiUaQzR4q7q7dH-10">
          <mxGeometry relative="1" as="geometry" />
        </mxCell>
        <mxCell id="OFqaLSWiUaQzR4q7q7dH-13" style="edgeStyle=none;rounded=0;orthogonalLoop=1;jettySize=auto;html=1;entryX=0.5;entryY=0;entryDx=0;entryDy=0;" edge="1" parent="1" source="OFqaLSWiUaQzR4q7q7dH-7" target="OFqaLSWiUaQzR4q7q7dH-11">
          <mxGeometry relative="1" as="geometry" />
        </mxCell>
        <mxCell id="OFqaLSWiUaQzR4q7q7dH-7" value="Categoryed Element" style="rounded=1;whiteSpace=wrap;html=1;" vertex="1" parent="1">
          <mxGeometry x="180" y="440" width="120" height="60" as="geometry" />
        </mxCell>
        <mxCell id="OFqaLSWiUaQzR4q7q7dH-8" value="Geometry" style="rounded=1;whiteSpace=wrap;html=1;" vertex="1" parent="1">
          <mxGeometry x="80" y="570" width="120" height="60" as="geometry" />
        </mxCell>
        <mxCell id="OFqaLSWiUaQzR4q7q7dH-10" value="Method" style="rounded=1;whiteSpace=wrap;html=1;" vertex="1" parent="1">
          <mxGeometry x="220" y="570" width="120" height="60" as="geometry" />
        </mxCell>
        <mxCell id="OFqaLSWiUaQzR4q7q7dH-11" value="Property" style="rounded=1;whiteSpace=wrap;html=1;" vertex="1" parent="1">
          <mxGeometry x="354" y="570" width="120" height="60" as="geometry" />
        </mxCell>
        <mxCell id="OFqaLSWiUaQzR4q7q7dH-14" value="Controller" style="rounded=1;whiteSpace=wrap;html=1;" vertex="1" parent="1">
          <mxGeometry x="1000" y="-80" width="120" height="60" as="geometry" />
        </mxCell>
        <mxCell id="OFqaLSWiUaQzR4q7q7dH-15" value="Camera" style="rounded=1;whiteSpace=wrap;html=1;" vertex="1" parent="1">
          <mxGeometry x="860" y="40" width="120" height="60" as="geometry" />
        </mxCell>
        <mxCell id="OFqaLSWiUaQzR4q7q7dH-16" value="UI Interface" style="rounded=1;whiteSpace=wrap;html=1;" vertex="1" parent="1">
          <mxGeometry x="1000" y="40" width="120" height="60" as="geometry" />
        </mxCell>
        <mxCell id="OFqaLSWiUaQzR4q7q7dH-17" value="Controller" style="rounded=1;whiteSpace=wrap;html=1;" vertex="1" parent="1">
          <mxGeometry x="1150" y="40" width="120" height="60" as="geometry" />
        </mxCell>
        <mxCell id="OFqaLSWiUaQzR4q7q7dH-18" value="Camera" style="rounded=1;whiteSpace=wrap;html=1;" vertex="1" parent="1">
          <mxGeometry x="440" y="280" width="120" height="60" as="geometry" />
        </mxCell>
        <mxCell id="OFqaLSWiUaQzR4q7q7dH-23" style="edgeStyle=none;rounded=0;orthogonalLoop=1;jettySize=auto;html=1;entryX=0.5;entryY=0;entryDx=0;entryDy=0;" edge="1" parent="1" source="OFqaLSWiUaQzR4q7q7dH-19" target="OFqaLSWiUaQzR4q7q7dH-14">
          <mxGeometry relative="1" as="geometry" />
        </mxCell>
        <mxCell id="OFqaLSWiUaQzR4q7q7dH-24" style="edgeStyle=none;rounded=0;orthogonalLoop=1;jettySize=auto;html=1;entryX=0.5;entryY=0;entryDx=0;entryDy=0;" edge="1" parent="1" source="OFqaLSWiUaQzR4q7q7dH-19" target="OFqaLSWiUaQzR4q7q7dH-21">
          <mxGeometry relative="1" as="geometry" />
        </mxCell>
        <mxCell id="OFqaLSWiUaQzR4q7q7dH-25" style="edgeStyle=none;rounded=0;orthogonalLoop=1;jettySize=auto;html=1;entryX=0.5;entryY=0;entryDx=0;entryDy=0;" edge="1" parent="1" source="OFqaLSWiUaQzR4q7q7dH-19" target="OFqaLSWiUaQzR4q7q7dH-22">
          <mxGeometry relative="1" as="geometry" />
        </mxCell>
        <mxCell id="OFqaLSWiUaQzR4q7q7dH-19" value="GameMode" style="rounded=1;whiteSpace=wrap;html=1;fontStyle=1" vertex="1" parent="1">
          <mxGeometry x="1200" y="-190" width="120" height="60" as="geometry" />
        </mxCell>
        <mxCell id="OFqaLSWiUaQzR4q7q7dH-21" value="Pawn" style="rounded=1;whiteSpace=wrap;html=1;fontStyle=1" vertex="1" parent="1">
          <mxGeometry x="1241" y="-80" width="120" height="60" as="geometry" />
        </mxCell>
        <mxCell id="OFqaLSWiUaQzR4q7q7dH-22" value="State" style="rounded=1;whiteSpace=wrap;html=1;fontStyle=1" vertex="1" parent="1">
          <mxGeometry x="1421" y="-80" width="120" height="60" as="geometry" />
        </mxCell>
      </root>
    </mxGraphModel>
  </diagram>
</mxfile>
